G04 (created by PCBNEW (2013-03-04 BZR 3984)-stable) date 10/14/2013 9:35:43 AM*
%MOIN*%
G04 Gerber Fmt 3.4, Leading zero omitted, Abs format*
%FSLAX34Y34*%
G01*
G70*
G90*
G04 APERTURE LIST*
%ADD10C,0.006*%
%ADD11C,0.00688976*%
%ADD12C,0.0688976*%
G04 APERTURE END LIST*
G54D10*
G54D11*
X80642Y-49756D02*
X80432Y-49756D01*
X80537Y-49861D02*
X80537Y-49651D01*
X80169Y-49585D02*
X80301Y-49585D01*
X80314Y-49717D01*
X80301Y-49704D01*
X80274Y-49690D01*
X80209Y-49690D01*
X80182Y-49704D01*
X80169Y-49717D01*
X80156Y-49743D01*
X80156Y-49809D01*
X80169Y-49835D01*
X80182Y-49848D01*
X80209Y-49861D01*
X80274Y-49861D01*
X80301Y-49848D01*
X80314Y-49835D01*
X80064Y-49677D02*
X79999Y-49861D01*
X79933Y-49677D01*
X79658Y-49677D02*
X79553Y-49677D01*
X79618Y-49585D02*
X79618Y-49822D01*
X79605Y-49848D01*
X79579Y-49861D01*
X79553Y-49861D01*
X79421Y-49861D02*
X79448Y-49848D01*
X79461Y-49835D01*
X79474Y-49809D01*
X79474Y-49730D01*
X79461Y-49704D01*
X79448Y-49690D01*
X79421Y-49677D01*
X79382Y-49677D01*
X79356Y-49690D01*
X79343Y-49704D01*
X79329Y-49730D01*
X79329Y-49809D01*
X79343Y-49835D01*
X79356Y-49848D01*
X79382Y-49861D01*
X79421Y-49861D01*
X79001Y-49756D02*
X78791Y-49756D01*
X78896Y-49861D02*
X78896Y-49651D01*
X78686Y-49585D02*
X78516Y-49585D01*
X78608Y-49690D01*
X78568Y-49690D01*
X78542Y-49704D01*
X78529Y-49717D01*
X78516Y-49743D01*
X78516Y-49809D01*
X78529Y-49835D01*
X78542Y-49848D01*
X78568Y-49861D01*
X78647Y-49861D01*
X78673Y-49848D01*
X78686Y-49835D01*
X78398Y-49835D02*
X78385Y-49848D01*
X78398Y-49861D01*
X78411Y-49848D01*
X78398Y-49835D01*
X78398Y-49861D01*
X78293Y-49585D02*
X78122Y-49585D01*
X78214Y-49690D01*
X78175Y-49690D01*
X78148Y-49704D01*
X78135Y-49717D01*
X78122Y-49743D01*
X78122Y-49809D01*
X78135Y-49835D01*
X78148Y-49848D01*
X78175Y-49861D01*
X78253Y-49861D01*
X78280Y-49848D01*
X78293Y-49835D01*
X78030Y-49677D02*
X77965Y-49861D01*
X77899Y-49677D01*
X77584Y-49861D02*
X77584Y-49585D01*
X77584Y-49690D02*
X77558Y-49677D01*
X77505Y-49677D01*
X77479Y-49690D01*
X77466Y-49704D01*
X77453Y-49730D01*
X77453Y-49809D01*
X77466Y-49835D01*
X77479Y-49848D01*
X77505Y-49861D01*
X77558Y-49861D01*
X77584Y-49848D01*
X77217Y-49677D02*
X77217Y-49861D01*
X77335Y-49677D02*
X77335Y-49822D01*
X77322Y-49848D01*
X77295Y-49861D01*
X77256Y-49861D01*
X77230Y-49848D01*
X77217Y-49835D01*
X76967Y-49848D02*
X76993Y-49861D01*
X77046Y-49861D01*
X77072Y-49848D01*
X77085Y-49835D01*
X77098Y-49809D01*
X77098Y-49730D01*
X77085Y-49704D01*
X77072Y-49690D01*
X77046Y-49677D01*
X76993Y-49677D01*
X76967Y-49690D01*
X76849Y-49861D02*
X76849Y-49585D01*
X76823Y-49756D02*
X76744Y-49861D01*
X76744Y-49677D02*
X76849Y-49782D01*
X79093Y-50132D02*
X79028Y-50316D01*
X78962Y-50132D01*
X78804Y-50040D02*
X78778Y-50040D01*
X78752Y-50053D01*
X78739Y-50066D01*
X78726Y-50093D01*
X78713Y-50145D01*
X78713Y-50211D01*
X78726Y-50263D01*
X78739Y-50290D01*
X78752Y-50303D01*
X78778Y-50316D01*
X78804Y-50316D01*
X78831Y-50303D01*
X78844Y-50290D01*
X78857Y-50263D01*
X78870Y-50211D01*
X78870Y-50145D01*
X78857Y-50093D01*
X78844Y-50066D01*
X78831Y-50053D01*
X78804Y-50040D01*
X78595Y-50290D02*
X78581Y-50303D01*
X78595Y-50316D01*
X78608Y-50303D01*
X78595Y-50290D01*
X78595Y-50316D01*
X78319Y-50316D02*
X78476Y-50316D01*
X78398Y-50316D02*
X78398Y-50040D01*
X78424Y-50080D01*
X78450Y-50106D01*
X78476Y-50119D01*
X79612Y-50770D02*
X79638Y-50757D01*
X79651Y-50744D01*
X79664Y-50718D01*
X79664Y-50639D01*
X79651Y-50613D01*
X79638Y-50600D01*
X79612Y-50587D01*
X79572Y-50587D01*
X79546Y-50600D01*
X79533Y-50613D01*
X79520Y-50639D01*
X79520Y-50718D01*
X79533Y-50744D01*
X79546Y-50757D01*
X79572Y-50770D01*
X79612Y-50770D01*
X79283Y-50757D02*
X79310Y-50770D01*
X79362Y-50770D01*
X79388Y-50757D01*
X79402Y-50744D01*
X79415Y-50718D01*
X79415Y-50639D01*
X79402Y-50613D01*
X79388Y-50600D01*
X79362Y-50587D01*
X79310Y-50587D01*
X79283Y-50600D01*
X79205Y-50587D02*
X79100Y-50587D01*
X79165Y-50495D02*
X79165Y-50731D01*
X79152Y-50757D01*
X79126Y-50770D01*
X79100Y-50770D01*
X79008Y-50666D02*
X78798Y-50666D01*
X78680Y-50521D02*
X78667Y-50508D01*
X78640Y-50495D01*
X78575Y-50495D01*
X78549Y-50508D01*
X78535Y-50521D01*
X78522Y-50547D01*
X78522Y-50574D01*
X78535Y-50613D01*
X78693Y-50770D01*
X78522Y-50770D01*
X78352Y-50495D02*
X78325Y-50495D01*
X78299Y-50508D01*
X78286Y-50521D01*
X78273Y-50547D01*
X78260Y-50600D01*
X78260Y-50666D01*
X78273Y-50718D01*
X78286Y-50744D01*
X78299Y-50757D01*
X78325Y-50770D01*
X78352Y-50770D01*
X78378Y-50757D01*
X78391Y-50744D01*
X78404Y-50718D01*
X78417Y-50666D01*
X78417Y-50600D01*
X78404Y-50547D01*
X78391Y-50521D01*
X78378Y-50508D01*
X78352Y-50495D01*
X77997Y-50770D02*
X78155Y-50770D01*
X78076Y-50770D02*
X78076Y-50495D01*
X78102Y-50534D01*
X78129Y-50561D01*
X78155Y-50574D01*
X77906Y-50495D02*
X77735Y-50495D01*
X77827Y-50600D01*
X77787Y-50600D01*
X77761Y-50613D01*
X77748Y-50626D01*
X77735Y-50652D01*
X77735Y-50718D01*
X77748Y-50744D01*
X77761Y-50757D01*
X77787Y-50770D01*
X77866Y-50770D01*
X77892Y-50757D01*
X77906Y-50744D01*
X81514Y-51041D02*
X81514Y-51265D01*
X81528Y-51291D01*
X81541Y-51304D01*
X81567Y-51317D01*
X81606Y-51317D01*
X81633Y-51304D01*
X81514Y-51212D02*
X81541Y-51225D01*
X81593Y-51225D01*
X81619Y-51212D01*
X81633Y-51199D01*
X81646Y-51173D01*
X81646Y-51094D01*
X81633Y-51068D01*
X81619Y-51055D01*
X81593Y-51041D01*
X81541Y-51041D01*
X81514Y-51055D01*
X81383Y-51225D02*
X81383Y-51041D01*
X81383Y-50950D02*
X81396Y-50963D01*
X81383Y-50976D01*
X81370Y-50963D01*
X81383Y-50950D01*
X81383Y-50976D01*
X81291Y-51041D02*
X81186Y-51041D01*
X81252Y-50950D02*
X81252Y-51186D01*
X81239Y-51212D01*
X81213Y-51225D01*
X81186Y-51225D01*
X81095Y-51225D02*
X81095Y-50950D01*
X80976Y-51225D02*
X80976Y-51081D01*
X80990Y-51055D01*
X81016Y-51041D01*
X81055Y-51041D01*
X81081Y-51055D01*
X81095Y-51068D01*
X80727Y-51041D02*
X80727Y-51225D01*
X80845Y-51041D02*
X80845Y-51186D01*
X80832Y-51212D01*
X80806Y-51225D01*
X80766Y-51225D01*
X80740Y-51212D01*
X80727Y-51199D01*
X80596Y-51225D02*
X80596Y-50950D01*
X80596Y-51055D02*
X80570Y-51041D01*
X80517Y-51041D01*
X80491Y-51055D01*
X80478Y-51068D01*
X80465Y-51094D01*
X80465Y-51173D01*
X80478Y-51199D01*
X80491Y-51212D01*
X80517Y-51225D01*
X80570Y-51225D01*
X80596Y-51212D01*
X80346Y-51199D02*
X80333Y-51212D01*
X80346Y-51225D01*
X80360Y-51212D01*
X80346Y-51199D01*
X80346Y-51225D01*
X80097Y-51212D02*
X80123Y-51225D01*
X80176Y-51225D01*
X80202Y-51212D01*
X80215Y-51199D01*
X80228Y-51173D01*
X80228Y-51094D01*
X80215Y-51068D01*
X80202Y-51055D01*
X80176Y-51041D01*
X80123Y-51041D01*
X80097Y-51055D01*
X79940Y-51225D02*
X79966Y-51212D01*
X79979Y-51199D01*
X79992Y-51173D01*
X79992Y-51094D01*
X79979Y-51068D01*
X79966Y-51055D01*
X79940Y-51041D01*
X79900Y-51041D01*
X79874Y-51055D01*
X79861Y-51068D01*
X79848Y-51094D01*
X79848Y-51173D01*
X79861Y-51199D01*
X79874Y-51212D01*
X79900Y-51225D01*
X79940Y-51225D01*
X79730Y-51225D02*
X79730Y-51041D01*
X79730Y-51068D02*
X79717Y-51055D01*
X79690Y-51041D01*
X79651Y-51041D01*
X79625Y-51055D01*
X79612Y-51081D01*
X79612Y-51225D01*
X79612Y-51081D02*
X79598Y-51055D01*
X79572Y-51041D01*
X79533Y-51041D01*
X79507Y-51055D01*
X79493Y-51081D01*
X79493Y-51225D01*
X79165Y-50937D02*
X79402Y-51291D01*
X79074Y-51041D02*
X79074Y-51225D01*
X79074Y-51068D02*
X79060Y-51055D01*
X79034Y-51041D01*
X78995Y-51041D01*
X78969Y-51055D01*
X78955Y-51081D01*
X78955Y-51225D01*
X78785Y-51225D02*
X78811Y-51212D01*
X78824Y-51199D01*
X78837Y-51173D01*
X78837Y-51094D01*
X78824Y-51068D01*
X78811Y-51055D01*
X78785Y-51041D01*
X78745Y-51041D01*
X78719Y-51055D01*
X78706Y-51068D01*
X78693Y-51094D01*
X78693Y-51173D01*
X78706Y-51199D01*
X78719Y-51212D01*
X78745Y-51225D01*
X78785Y-51225D01*
X78457Y-51225D02*
X78457Y-51081D01*
X78470Y-51055D01*
X78496Y-51041D01*
X78549Y-51041D01*
X78575Y-51055D01*
X78457Y-51212D02*
X78483Y-51225D01*
X78549Y-51225D01*
X78575Y-51212D01*
X78588Y-51186D01*
X78588Y-51160D01*
X78575Y-51133D01*
X78549Y-51120D01*
X78483Y-51120D01*
X78457Y-51107D01*
X78325Y-51225D02*
X78325Y-50950D01*
X78207Y-51225D02*
X78207Y-51081D01*
X78220Y-51055D01*
X78247Y-51041D01*
X78286Y-51041D01*
X78312Y-51055D01*
X78325Y-51068D01*
X78076Y-51041D02*
X78076Y-51317D01*
X78076Y-51055D02*
X78050Y-51041D01*
X77997Y-51041D01*
X77971Y-51055D01*
X77958Y-51068D01*
X77945Y-51094D01*
X77945Y-51173D01*
X77958Y-51199D01*
X77971Y-51212D01*
X77997Y-51225D01*
X78050Y-51225D01*
X78076Y-51212D01*
X77630Y-50937D02*
X77866Y-51291D01*
X77564Y-50950D02*
X77394Y-50950D01*
X77486Y-51055D01*
X77446Y-51055D01*
X77420Y-51068D01*
X77407Y-51081D01*
X77394Y-51107D01*
X77394Y-51173D01*
X77407Y-51199D01*
X77420Y-51212D01*
X77446Y-51225D01*
X77525Y-51225D01*
X77551Y-51212D01*
X77564Y-51199D01*
X77341Y-51251D02*
X77131Y-51251D01*
X77092Y-50950D02*
X76921Y-50950D01*
X77013Y-51055D01*
X76974Y-51055D01*
X76948Y-51068D01*
X76934Y-51081D01*
X76921Y-51107D01*
X76921Y-51173D01*
X76934Y-51199D01*
X76948Y-51212D01*
X76974Y-51225D01*
X77053Y-51225D01*
X77079Y-51212D01*
X77092Y-51199D01*
X76816Y-51212D02*
X76790Y-51225D01*
X76738Y-51225D01*
X76711Y-51212D01*
X76698Y-51186D01*
X76698Y-51173D01*
X76711Y-51146D01*
X76738Y-51133D01*
X76777Y-51133D01*
X76803Y-51120D01*
X76816Y-51094D01*
X76816Y-51081D01*
X76803Y-51055D01*
X76777Y-51041D01*
X76738Y-51041D01*
X76711Y-51055D01*
X76606Y-51041D02*
X76554Y-51225D01*
X76501Y-51094D01*
X76449Y-51225D01*
X76396Y-51041D01*
X76291Y-51225D02*
X76291Y-51041D01*
X76291Y-51094D02*
X76278Y-51068D01*
X76265Y-51055D01*
X76239Y-51041D01*
X76213Y-51041D01*
X76016Y-51212D02*
X76042Y-51225D01*
X76095Y-51225D01*
X76121Y-51212D01*
X76134Y-51186D01*
X76134Y-51081D01*
X76121Y-51055D01*
X76095Y-51041D01*
X76042Y-51041D01*
X76016Y-51055D01*
X76003Y-51081D01*
X76003Y-51107D01*
X76134Y-51133D01*
X75766Y-51041D02*
X75766Y-51265D01*
X75780Y-51291D01*
X75793Y-51304D01*
X75819Y-51317D01*
X75858Y-51317D01*
X75885Y-51304D01*
X75766Y-51212D02*
X75793Y-51225D01*
X75845Y-51225D01*
X75871Y-51212D01*
X75885Y-51199D01*
X75898Y-51173D01*
X75898Y-51094D01*
X75885Y-51068D01*
X75871Y-51055D01*
X75845Y-51041D01*
X75793Y-51041D01*
X75766Y-51055D01*
G54D12*
X81500Y-52000D03*
X76000Y-53000D03*
X76000Y-52000D03*
X81500Y-53000D03*
M02*
