G04 (created by PCBNEW (2013-03-04 BZR 3984)-stable) date 10/14/2013 9:35:43 AM*
%MOIN*%
G04 Gerber Fmt 3.4, Leading zero omitted, Abs format*
%FSLAX34Y34*%
G01*
G70*
G90*
G04 APERTURE LIST*
%ADD10C,0.006*%
%ADD11C,0.00984252*%
%ADD12C,0.005*%
%ADD13C,0.00590551*%
%ADD14C,0.0045*%
G04 APERTURE END LIST*
G54D10*
G54D11*
X78300Y-53721D02*
X78318Y-53740D01*
X78300Y-53759D01*
X78281Y-53740D01*
X78300Y-53721D01*
X78300Y-53759D01*
G54D12*
X77750Y-53600D02*
X76850Y-53600D01*
X76850Y-53600D02*
X76850Y-53100D01*
X76850Y-53100D02*
X77750Y-53100D01*
X77750Y-53100D02*
X77750Y-53600D01*
X79750Y-53450D02*
X79750Y-52550D01*
X79750Y-52550D02*
X80250Y-52550D01*
X80250Y-52550D02*
X80250Y-53450D01*
X80250Y-53450D02*
X79750Y-53450D01*
G54D13*
X80748Y-51456D02*
X80958Y-51456D01*
X80853Y-51561D02*
X80853Y-51351D01*
X81063Y-51285D02*
X81234Y-51285D01*
X81142Y-51390D01*
X81181Y-51390D01*
X81208Y-51404D01*
X81221Y-51417D01*
X81234Y-51443D01*
X81234Y-51509D01*
X81221Y-51535D01*
X81208Y-51548D01*
X81181Y-51561D01*
X81103Y-51561D01*
X81076Y-51548D01*
X81063Y-51535D01*
X81352Y-51535D02*
X81365Y-51548D01*
X81352Y-51561D01*
X81339Y-51548D01*
X81352Y-51535D01*
X81352Y-51561D01*
X81457Y-51285D02*
X81628Y-51285D01*
X81536Y-51390D01*
X81575Y-51390D01*
X81601Y-51404D01*
X81614Y-51417D01*
X81628Y-51443D01*
X81628Y-51509D01*
X81614Y-51535D01*
X81601Y-51548D01*
X81575Y-51561D01*
X81496Y-51561D01*
X81470Y-51548D01*
X81457Y-51535D01*
X81706Y-51285D02*
X81798Y-51561D01*
X81890Y-51285D01*
X75790Y-53449D02*
X75763Y-53435D01*
X75724Y-53435D01*
X75685Y-53449D01*
X75658Y-53475D01*
X75645Y-53501D01*
X75632Y-53554D01*
X75632Y-53593D01*
X75645Y-53645D01*
X75658Y-53672D01*
X75685Y-53698D01*
X75724Y-53711D01*
X75750Y-53711D01*
X75790Y-53698D01*
X75803Y-53685D01*
X75803Y-53593D01*
X75750Y-53593D01*
X75921Y-53711D02*
X75921Y-53435D01*
X76078Y-53711D01*
X76078Y-53435D01*
X76209Y-53711D02*
X76209Y-53435D01*
X76275Y-53435D01*
X76314Y-53449D01*
X76341Y-53475D01*
X76354Y-53501D01*
X76367Y-53554D01*
X76367Y-53593D01*
X76354Y-53645D01*
X76341Y-53672D01*
X76314Y-53698D01*
X76275Y-53711D01*
X76209Y-53711D01*
X75645Y-51456D02*
X75855Y-51456D01*
X75750Y-51561D02*
X75750Y-51351D01*
X76118Y-51285D02*
X75986Y-51285D01*
X75973Y-51417D01*
X75986Y-51404D01*
X76013Y-51390D01*
X76078Y-51390D01*
X76104Y-51404D01*
X76118Y-51417D01*
X76131Y-51443D01*
X76131Y-51509D01*
X76118Y-51535D01*
X76104Y-51548D01*
X76078Y-51561D01*
X76013Y-51561D01*
X75986Y-51548D01*
X75973Y-51535D01*
X76209Y-51285D02*
X76301Y-51561D01*
X76393Y-51285D01*
G54D14*
X77620Y-52961D02*
X77611Y-52971D01*
X77585Y-52980D01*
X77568Y-52980D01*
X77542Y-52971D01*
X77525Y-52952D01*
X77517Y-52933D01*
X77508Y-52895D01*
X77508Y-52866D01*
X77517Y-52828D01*
X77525Y-52809D01*
X77542Y-52790D01*
X77568Y-52780D01*
X77585Y-52780D01*
X77611Y-52790D01*
X77620Y-52800D01*
X77791Y-52980D02*
X77688Y-52980D01*
X77740Y-52980D02*
X77740Y-52780D01*
X77722Y-52809D01*
X77705Y-52828D01*
X77688Y-52838D01*
X80561Y-53530D02*
X80571Y-53538D01*
X80580Y-53564D01*
X80580Y-53581D01*
X80571Y-53607D01*
X80552Y-53624D01*
X80533Y-53632D01*
X80495Y-53641D01*
X80466Y-53641D01*
X80428Y-53632D01*
X80409Y-53624D01*
X80390Y-53607D01*
X80380Y-53581D01*
X80380Y-53564D01*
X80390Y-53538D01*
X80400Y-53530D01*
X80400Y-53461D02*
X80390Y-53452D01*
X80380Y-53435D01*
X80380Y-53392D01*
X80390Y-53375D01*
X80400Y-53367D01*
X80419Y-53358D01*
X80438Y-53358D01*
X80466Y-53367D01*
X80580Y-53470D01*
X80580Y-53358D01*
G54D13*
X79140Y-52235D02*
X79140Y-52459D01*
X79153Y-52485D01*
X79166Y-52498D01*
X79192Y-52511D01*
X79245Y-52511D01*
X79271Y-52498D01*
X79284Y-52485D01*
X79297Y-52459D01*
X79297Y-52235D01*
X79573Y-52511D02*
X79415Y-52511D01*
X79494Y-52511D02*
X79494Y-52235D01*
X79468Y-52275D01*
X79441Y-52301D01*
X79415Y-52314D01*
X80784Y-50059D02*
X80596Y-50059D01*
X80596Y-49665D01*
X81121Y-50059D02*
X80896Y-50059D01*
X81009Y-50059D02*
X81009Y-49665D01*
X80971Y-49721D01*
X80934Y-49759D01*
X80896Y-49778D01*
X81290Y-53449D02*
X81263Y-53435D01*
X81224Y-53435D01*
X81185Y-53449D01*
X81158Y-53475D01*
X81145Y-53501D01*
X81132Y-53554D01*
X81132Y-53593D01*
X81145Y-53645D01*
X81158Y-53672D01*
X81185Y-53698D01*
X81224Y-53711D01*
X81250Y-53711D01*
X81290Y-53698D01*
X81303Y-53685D01*
X81303Y-53593D01*
X81250Y-53593D01*
X81421Y-53711D02*
X81421Y-53435D01*
X81578Y-53711D01*
X81578Y-53435D01*
X81709Y-53711D02*
X81709Y-53435D01*
X81775Y-53435D01*
X81814Y-53449D01*
X81841Y-53475D01*
X81854Y-53501D01*
X81867Y-53554D01*
X81867Y-53593D01*
X81854Y-53645D01*
X81841Y-53672D01*
X81814Y-53698D01*
X81775Y-53711D01*
X81709Y-53711D01*
M02*
