G04 (created by PCBNEW (2013-03-04 BZR 3984)-stable) date 10/14/2013 9:35:43 AM*
%MOIN*%
G04 Gerber Fmt 3.4, Leading zero omitted, Abs format*
%FSLAX34Y34*%
G01*
G70*
G90*
G04 APERTURE LIST*
%ADD10C,0.006*%
%ADD11C,0.0688976*%
%ADD12C,0.035*%
%ADD13C,0.011811*%
%ADD14C,0.00590551*%
G04 APERTURE END LIST*
G54D10*
G54D11*
X81500Y-52000D03*
X76000Y-53000D03*
X76000Y-52000D03*
X81500Y-53000D03*
G54D12*
X76800Y-52200D03*
X80750Y-52400D03*
X80750Y-51600D03*
X78200Y-52250D03*
X79450Y-53500D03*
G54D13*
X76000Y-53000D02*
X76800Y-52200D01*
X80750Y-52400D02*
X80750Y-51600D01*
X79450Y-53500D02*
X78200Y-52250D01*
G54D10*
G36*
X81890Y-53784D02*
X81877Y-53852D01*
X81847Y-53897D01*
X81802Y-53927D01*
X81765Y-53934D01*
X81765Y-53364D01*
X81500Y-53099D01*
X81400Y-53199D01*
X81400Y-53000D01*
X81135Y-52734D01*
X81071Y-52775D01*
X81018Y-52956D01*
X81038Y-53144D01*
X81071Y-53224D01*
X81135Y-53265D01*
X81400Y-53000D01*
X81400Y-53199D01*
X81234Y-53364D01*
X81275Y-53428D01*
X81456Y-53481D01*
X81644Y-53461D01*
X81724Y-53428D01*
X81765Y-53364D01*
X81765Y-53934D01*
X81734Y-53940D01*
X79754Y-53940D01*
X79754Y-53439D01*
X79708Y-53327D01*
X79622Y-53241D01*
X79510Y-53195D01*
X79412Y-53195D01*
X78504Y-52287D01*
X78504Y-52189D01*
X78458Y-52077D01*
X78372Y-51991D01*
X78260Y-51945D01*
X78139Y-51945D01*
X78027Y-51991D01*
X77941Y-52077D01*
X77895Y-52189D01*
X77895Y-52310D01*
X77941Y-52422D01*
X78027Y-52508D01*
X78139Y-52554D01*
X78237Y-52554D01*
X79145Y-53462D01*
X79145Y-53560D01*
X79191Y-53672D01*
X79277Y-53758D01*
X79389Y-53804D01*
X79510Y-53804D01*
X79622Y-53758D01*
X79708Y-53672D01*
X79754Y-53560D01*
X79754Y-53439D01*
X79754Y-53940D01*
X76481Y-53940D01*
X76481Y-53043D01*
X76461Y-52855D01*
X76428Y-52775D01*
X76364Y-52734D01*
X76265Y-52834D01*
X76265Y-52635D01*
X76224Y-52571D01*
X76043Y-52518D01*
X75855Y-52538D01*
X75775Y-52571D01*
X75734Y-52635D01*
X76000Y-52900D01*
X76265Y-52635D01*
X76265Y-52834D01*
X76099Y-53000D01*
X76364Y-53265D01*
X76428Y-53224D01*
X76481Y-53043D01*
X76481Y-53940D01*
X76265Y-53940D01*
X76265Y-53364D01*
X76000Y-53099D01*
X75734Y-53364D01*
X75775Y-53428D01*
X75956Y-53481D01*
X76144Y-53461D01*
X76224Y-53428D01*
X76265Y-53364D01*
X76265Y-53940D01*
X75765Y-53940D01*
X75697Y-53927D01*
X75652Y-53897D01*
X75622Y-53852D01*
X75609Y-53784D01*
X75609Y-53248D01*
X75635Y-53265D01*
X75900Y-53000D01*
X75635Y-52734D01*
X75609Y-52751D01*
X75609Y-52279D01*
X75731Y-52401D01*
X75905Y-52473D01*
X76093Y-52474D01*
X76268Y-52402D01*
X76401Y-52268D01*
X76473Y-52094D01*
X76474Y-51906D01*
X76402Y-51731D01*
X76268Y-51598D01*
X76094Y-51526D01*
X75906Y-51525D01*
X75731Y-51597D01*
X75609Y-51720D01*
X75609Y-49665D01*
X75622Y-49597D01*
X75652Y-49552D01*
X75697Y-49522D01*
X75765Y-49509D01*
X81734Y-49509D01*
X81802Y-49522D01*
X81847Y-49552D01*
X81877Y-49597D01*
X81890Y-49665D01*
X81890Y-51720D01*
X81768Y-51598D01*
X81594Y-51526D01*
X81406Y-51525D01*
X81231Y-51597D01*
X81098Y-51731D01*
X81026Y-51905D01*
X81025Y-52093D01*
X81097Y-52268D01*
X81231Y-52401D01*
X81405Y-52473D01*
X81593Y-52474D01*
X81768Y-52402D01*
X81890Y-52279D01*
X81890Y-52751D01*
X81864Y-52734D01*
X81765Y-52834D01*
X81765Y-52635D01*
X81724Y-52571D01*
X81543Y-52518D01*
X81355Y-52538D01*
X81275Y-52571D01*
X81234Y-52635D01*
X81500Y-52900D01*
X81765Y-52635D01*
X81765Y-52834D01*
X81599Y-53000D01*
X81864Y-53265D01*
X81890Y-53248D01*
X81890Y-53784D01*
X81890Y-53784D01*
G37*
G54D14*
X81890Y-53784D02*
X81877Y-53852D01*
X81847Y-53897D01*
X81802Y-53927D01*
X81765Y-53934D01*
X81765Y-53364D01*
X81500Y-53099D01*
X81400Y-53199D01*
X81400Y-53000D01*
X81135Y-52734D01*
X81071Y-52775D01*
X81018Y-52956D01*
X81038Y-53144D01*
X81071Y-53224D01*
X81135Y-53265D01*
X81400Y-53000D01*
X81400Y-53199D01*
X81234Y-53364D01*
X81275Y-53428D01*
X81456Y-53481D01*
X81644Y-53461D01*
X81724Y-53428D01*
X81765Y-53364D01*
X81765Y-53934D01*
X81734Y-53940D01*
X79754Y-53940D01*
X79754Y-53439D01*
X79708Y-53327D01*
X79622Y-53241D01*
X79510Y-53195D01*
X79412Y-53195D01*
X78504Y-52287D01*
X78504Y-52189D01*
X78458Y-52077D01*
X78372Y-51991D01*
X78260Y-51945D01*
X78139Y-51945D01*
X78027Y-51991D01*
X77941Y-52077D01*
X77895Y-52189D01*
X77895Y-52310D01*
X77941Y-52422D01*
X78027Y-52508D01*
X78139Y-52554D01*
X78237Y-52554D01*
X79145Y-53462D01*
X79145Y-53560D01*
X79191Y-53672D01*
X79277Y-53758D01*
X79389Y-53804D01*
X79510Y-53804D01*
X79622Y-53758D01*
X79708Y-53672D01*
X79754Y-53560D01*
X79754Y-53439D01*
X79754Y-53940D01*
X76481Y-53940D01*
X76481Y-53043D01*
X76461Y-52855D01*
X76428Y-52775D01*
X76364Y-52734D01*
X76265Y-52834D01*
X76265Y-52635D01*
X76224Y-52571D01*
X76043Y-52518D01*
X75855Y-52538D01*
X75775Y-52571D01*
X75734Y-52635D01*
X76000Y-52900D01*
X76265Y-52635D01*
X76265Y-52834D01*
X76099Y-53000D01*
X76364Y-53265D01*
X76428Y-53224D01*
X76481Y-53043D01*
X76481Y-53940D01*
X76265Y-53940D01*
X76265Y-53364D01*
X76000Y-53099D01*
X75734Y-53364D01*
X75775Y-53428D01*
X75956Y-53481D01*
X76144Y-53461D01*
X76224Y-53428D01*
X76265Y-53364D01*
X76265Y-53940D01*
X75765Y-53940D01*
X75697Y-53927D01*
X75652Y-53897D01*
X75622Y-53852D01*
X75609Y-53784D01*
X75609Y-53248D01*
X75635Y-53265D01*
X75900Y-53000D01*
X75635Y-52734D01*
X75609Y-52751D01*
X75609Y-52279D01*
X75731Y-52401D01*
X75905Y-52473D01*
X76093Y-52474D01*
X76268Y-52402D01*
X76401Y-52268D01*
X76473Y-52094D01*
X76474Y-51906D01*
X76402Y-51731D01*
X76268Y-51598D01*
X76094Y-51526D01*
X75906Y-51525D01*
X75731Y-51597D01*
X75609Y-51720D01*
X75609Y-49665D01*
X75622Y-49597D01*
X75652Y-49552D01*
X75697Y-49522D01*
X75765Y-49509D01*
X81734Y-49509D01*
X81802Y-49522D01*
X81847Y-49552D01*
X81877Y-49597D01*
X81890Y-49665D01*
X81890Y-51720D01*
X81768Y-51598D01*
X81594Y-51526D01*
X81406Y-51525D01*
X81231Y-51597D01*
X81098Y-51731D01*
X81026Y-51905D01*
X81025Y-52093D01*
X81097Y-52268D01*
X81231Y-52401D01*
X81405Y-52473D01*
X81593Y-52474D01*
X81768Y-52402D01*
X81890Y-52279D01*
X81890Y-52751D01*
X81864Y-52734D01*
X81765Y-52834D01*
X81765Y-52635D01*
X81724Y-52571D01*
X81543Y-52518D01*
X81355Y-52538D01*
X81275Y-52571D01*
X81234Y-52635D01*
X81500Y-52900D01*
X81765Y-52635D01*
X81765Y-52834D01*
X81599Y-53000D01*
X81864Y-53265D01*
X81890Y-53248D01*
X81890Y-53784D01*
M02*
